<mxfile host="app.diagrams.net" modified="2024-02-17T18:30:45.675Z" agent="Mozilla/5.0 (Linux; Android 10; K) AppleWebKit/537.36 (KHTML, like Gecko) Chrome/121.0.0.0 Mobile Safari/537.36" etag="ON0J4GmYSPmh7GB2k1Jo" version="23.1.5" type="github">
  <diagram id="ET2X_iYAjZO-mu4oSH6n" name="Page-1">
    <mxGraphModel dx="6520" dy="11540" grid="0" gridSize="10" guides="1" tooltips="1" connect="1" arrows="1" fold="1" page="0" pageScale="1" pageWidth="850" pageHeight="1100" math="0" shadow="0">
      <root>
        <mxCell id="0" />
        <mxCell id="1" parent="0" />
      </root>
    </mxGraphModel>
  </diagram>
</mxfile>
